<svg width="154" height="52" viewBox="0 0 154 52" fill="none" xmlns="http://www.w3.org/2000/svg">
<path d="M6.7181 15.4146C6.82019 15.3841 6.92302 15.3539 7.02365 15.3214C6.94172 15.3099 6.85758 15.2982 6.77418 15.2866C6.70526 15.3174 6.64129 15.3499 6.58594 15.3856C6.62993 15.3953 6.6741 15.405 6.7181 15.4146Z" fill="#C1D2DB"/>
<path d="M2.82703 16.3055C2.48794 16.2161 2.16222 16.1204 1.67868 16.1417C1.56247 16.195 1.5029 16.221 1.47266 16.2355C1.65155 16.2898 1.89332 16.3642 2.13509 16.4368C2.61093 16.5812 2.85599 16.47 2.82703 16.3055Z" fill="#C1D2DB"/>
<path d="M1.47173 16.2351C1.30566 16.1843 1.19531 16.1504 1.19531 16.1504C1.25873 16.1898 1.32069 16.2254 1.38008 16.2609C1.43287 16.253 1.43452 16.2516 1.43452 16.2516C1.43452 16.2516 1.43635 16.2508 1.47173 16.2351Z" fill="#C1D2DB"/>
<path d="M92.8767 14.0784C99.3511 14.3278 105.852 14.4946 112.351 14.6169C112.568 14.6215 112.752 14.5683 112.762 14.4939C112.773 14.4305 112.604 14.3643 112.402 14.3656C105.901 14.2327 99.432 14.0628 92.959 13.8141C92.7413 13.8113 92.5615 13.8639 92.5318 13.9328C92.5211 14.0073 92.6736 14.0692 92.8767 14.0784Z" fill="#C1D2DB"/>
<path d="M141.378 21.3085C141.223 21.3642 141.229 21.4397 141.389 21.4916C141.526 21.5367 141.771 21.5427 141.924 21.4879C142.053 21.4408 142.048 21.3497 141.911 21.3052C141.752 21.2525 141.507 21.2621 141.378 21.3085Z" fill="#C1D2DB"/>
<path d="M145.417 24.438C140.733 24.2367 136.02 24.0494 131.299 23.8958C131.629 23.8326 131.957 23.7708 132.289 23.7101C132.617 23.6885 132.946 23.6627 133.274 23.6407C136.31 23.6216 139.346 23.582 142.393 23.5065C143.53 23.5211 144.472 23.2163 144.532 22.8193C144.55 22.4329 143.705 22.1204 142.61 22.0905C142.787 22.0671 142.963 22.0419 143.141 22.0209C143.32 22.0036 143.448 21.9274 143.399 21.8662C143.329 21.7972 143.101 21.7531 142.927 21.7701C142.286 21.8594 141.657 21.9541 141.026 22.0482C135.241 21.9025 129.448 21.9485 123.655 22.0245C129.889 21.569 136.206 21.2565 142.569 21.1337C142.44 21.1812 142.425 21.2633 142.583 21.3152C142.719 21.359 142.988 21.3581 143.119 21.3104C143.27 21.2565 143.244 21.1728 143.106 21.1278C143.101 21.1264 143.098 21.1257 143.093 21.1242C146.507 21.0635 149.933 21.0556 153.369 21.1104C153.569 21.1163 153.741 21.0545 153.737 20.979C153.733 20.9022 153.549 20.8426 153.326 20.8448C141.947 20.6659 130.659 21.1696 119.632 22.0782C119.032 22.0861 118.429 22.0958 117.825 22.1023C117.825 22.1008 117.825 22.0986 117.824 22.0969C117.634 21.7985 117.236 21.535 116.694 21.3199C120.598 21.1902 124.48 21.0369 128.377 20.858C131.622 20.8831 134.868 20.9099 138.12 20.9293C138.589 20.9339 138.98 20.8085 138.991 20.6324C139.005 20.4718 138.618 20.3457 138.125 20.334C137.328 20.323 136.531 20.3197 135.734 20.3104C136.391 20.1052 136.821 19.8147 136.864 19.4888C136.909 19.1747 136.579 18.8882 136.024 18.6669C139.54 18.3696 143.024 18.0391 146.423 17.5996C146.623 17.5752 146.73 17.5063 146.658 17.4374C146.587 17.3694 146.382 17.3325 146.185 17.3574C141.241 17.5451 136.36 17.8263 131.466 18.0465C127.602 17.6606 123.822 17.2433 119.645 17.0928C113.562 16.8853 107.85 17.2905 102.145 17.696C100.094 17.5935 98.0494 17.5164 96.0206 17.4685C96.3062 17.3186 96.4761 17.1406 96.4761 16.9472C96.4761 16.8987 96.4547 16.8516 96.4314 16.8035C98.2174 16.829 100.014 16.8479 101.839 16.8673C118.764 17.0413 134.656 15.7138 150.845 14.6174C151.881 14.5741 152.629 14.2482 152.505 13.8953C152.383 13.5403 151.427 13.2841 150.395 13.3269C142.632 13.3291 135.476 13.9439 127.621 14.553C122.027 14.9843 117.113 15.3023 111.495 15.6029C104.919 15.9496 98.8005 15.8727 92.3532 15.8647C91.7196 15.8084 91.0845 15.7699 90.4437 15.7912C89.7952 15.8112 89.1485 15.8315 88.5057 15.8513C83.4593 15.8013 78.5102 15.5745 73.5857 15.3331C79.4778 15.1152 85.3583 14.86 91.1547 14.378C91.572 14.3582 91.8475 14.2242 91.8046 14.0878C91.7304 13.9498 91.3559 13.8504 90.9384 13.871C82.8567 14.169 74.7454 14.2865 66.646 14.433C64.4367 13.2102 59.7597 12.4889 55.5804 12.4451C54.0368 12.4233 52.6062 12.5595 51.1642 12.76C51.8373 12.8121 52.494 12.8581 53.1665 12.9101C51.179 12.953 49.4856 13.2687 47.8106 13.5955C47.6647 13.5793 47.5186 13.5629 47.3619 13.5535C43.4722 12.8775 38.929 13.0108 34.7273 12.7182C34.8162 12.8751 34.9253 13.0298 35.0143 13.1858C34.2373 13.0659 33.7835 12.7835 32.9321 12.6979C33.1713 12.8119 33.394 12.9268 33.6332 13.0414C33.6167 13.0399 33.5986 13.0377 33.5822 13.0362C32.6722 12.7826 31.575 12.6702 30.4358 12.6603C27.85 11.9346 24.6933 11.516 21.3855 11.3188C20.9586 11.1307 20.3195 11.0002 19.5698 10.9762C19.2531 10.9173 18.8826 10.8776 18.6531 10.7954C16.5973 10.0333 14.0869 9.51127 11.3174 9.12012C11.8505 9.26492 12.4071 9.40917 12.9411 9.55343C12.1408 9.43392 11.3512 9.30928 10.4594 9.30195C10.5527 9.39213 10.6732 9.48249 10.767 9.57359C8.01334 8.91886 4.23744 9.15366 2.3341 10.0921C0.423416 11.0332 1.09666 12.3229 3.85124 12.9767L4.24881 13.078C2.84201 13.2227 1.61429 13.53 0.920881 14.0704C0.550439 14.3677 0.874691 14.7436 0.954608 15.0895C0.842431 15.5903 1.95229 16.0284 3.42544 16.0639C3.82503 16.0733 4.20628 16.0504 4.5562 16.0051C6.25627 16.1899 7.99483 16.3367 9.64835 16.561C9.97516 16.6167 10.3735 16.568 10.5459 16.4516C10.6928 16.3363 10.5516 16.2001 10.2134 16.1488C9.02202 15.9149 7.86781 15.6671 6.71927 15.4151C6.62378 15.4437 6.52901 15.4724 6.43333 15.5023C6.47384 15.4598 6.52993 15.4228 6.58712 15.3861C6.48264 15.363 6.37779 15.3403 6.2735 15.3172C6.35506 15.2954 6.43095 15.2714 6.51526 15.2508C6.60233 15.2629 6.6883 15.2752 6.77536 15.2871C6.9209 15.222 7.08806 15.1649 7.27814 15.1159C9.34096 15.2901 11.3834 15.484 13.3046 15.8165C13.4167 15.8377 13.2287 16.0615 13.4349 16.1438C13.5383 16.1845 13.6446 16.2214 13.756 16.259C13.411 16.2104 13.0465 16.1691 12.6546 16.1382C11.178 16.4554 10.6202 16.5751 10.2351 16.6574C10.2334 16.6562 10.2294 16.6552 10.2285 16.6543C10.2285 16.6543 10.2252 16.6552 10.1128 16.6835C9.93484 16.7218 9.77885 16.7546 9.55358 16.8032C9.55358 16.8032 9.55523 16.811 9.55523 16.8226C9.51051 16.8341 9.46267 16.8462 9.41318 16.8583C9.19285 16.8437 8.97253 16.8268 8.75074 16.8132C8.50146 16.7929 8.25988 16.8341 8.13872 16.9036C8.05202 16.8481 7.95964 16.7916 7.84251 16.7352C6.58015 16.6255 6.58015 16.6255 5.28498 16.5266C5.28498 16.5266 5.28754 16.5836 5.3297 16.6631C5.27856 16.6684 4.84708 16.7297 4.34302 16.6989C3.85784 16.7082 3.85784 16.7082 2.6468 16.6144C2.6468 16.6144 2.6468 16.6144 3.23169 16.8391C3.23169 16.8391 3.2317 16.8391 2.71938 16.6833C2.71938 16.6833 2.71938 16.6833 2.85301 16.9394C2.85301 16.9394 2.85301 16.9394 2.61692 16.6602C2.61692 16.6602 2.61692 16.6602 2.3966 16.8699C2.3966 16.8699 2.3933 16.8673 1.38114 16.261C1.30195 16.2742 1.11389 16.305 0.641903 16.384C0.641903 16.384 0.510665 16.4415 0.414984 16.5115C0.40417 16.5861 0.404169 16.5861 0.000917787 16.8468C0.000917787 16.8468 -0.00824696 16.9327 0.031345 17.0237C0.155253 17.1083 0.155252 17.1083 0.186412 17.3431C0.186412 17.3431 0.325901 17.4337 0.529726 17.5116C0.724387 17.5567 0.77461 17.5684 1.49643 17.7136C1.43374 17.7528 1.37436 17.795 1.32157 17.8379C1.18208 18.2736 1.18208 18.2736 2.0839 19.2863C2.0839 19.2863 2.58704 19.5629 3.40216 19.7625C4.34834 19.8587 4.34834 19.8587 5.44151 19.9592C5.44151 19.9592 5.67907 19.9965 6.09002 20.046C6.39594 20.2106 6.46376 20.2535 6.6905 20.4016C6.6905 20.4016 6.69215 20.4016 6.69563 20.4038C6.48685 20.4141 6.28229 20.4431 6.11238 20.4907C5.61986 20.6326 5.55131 20.8797 5.96483 21.0472C5.42099 21.7179 5.74615 22.3253 6.43333 22.9064C6.22382 23.128 6.12723 23.3628 6.15527 23.6033C5.35023 24.1755 4.84855 24.7844 4.63813 25.4322L4.54153 25.998C4.77432 26.4759 5.44995 26.9224 6.45294 27.2655L6.75666 27.4017L6.46871 27.8682C7.75306 29.1104 10.2957 30.1059 11.8657 31.2916L13.0463 31.9168C13.9043 32.4218 15.2655 32.7917 16.8601 32.9703L18.5455 33.149C18.9002 33.1578 19.2527 33.1636 19.6098 33.1678C17.8162 33.7472 16.8304 34.6009 17.1587 35.5025C17.7238 36.9859 21.7184 38.0397 26.0785 37.8384C37.7167 37.7798 48.9529 37.6797 60.8477 37.0629C69.6537 36.6134 77.6419 36.0042 86.2761 36.0064C94.5335 35.3641 102.488 34.533 110.544 33.5394C117.313 32.7111 122.492 31.0458 128.479 29.7792C128.653 29.7461 128.67 29.6627 128.577 29.6026C128.439 29.5419 128.195 29.536 128.039 29.5758C118.541 30.6789 108.969 31.636 98.7886 31.8598C97.6221 31.8835 96.4754 31.8881 95.3402 31.8778C95.2149 31.8553 95.077 31.8395 94.9278 31.8349C93.8957 31.7627 92.8586 31.6989 91.8233 31.6382C92.1837 31.6344 92.5435 31.6294 92.9048 31.6221C93.62 31.6316 94.2329 31.4441 94.2841 31.1912C94.2857 31.0852 94.1851 30.9881 94.0185 30.908C96.6651 30.6428 99.2547 30.2972 101.836 29.9338C102.606 29.9065 103.315 29.8172 103.926 29.6834C106.91 29.8676 109.905 30.0003 112.907 30.1704L113.65 30.243C114.635 30.296 115.584 30.1436 116.057 29.8504C116.21 29.764 116.301 29.6707 116.346 29.5767C123.18 29.0572 130.12 28.669 136.572 27.695C136.899 27.6453 137.073 27.5395 137.02 27.4219C137.141 27.4501 137.302 27.458 137.446 27.4285C138.215 27.232 139.077 27.1112 139.985 27.0054C140.183 26.9647 140.291 26.896 140.199 26.8361C140.105 26.7604 139.88 26.7309 139.703 26.7626C138.774 26.8766 137.865 27.0133 137.031 27.203C136.942 27.2258 136.883 27.2615 136.867 27.3C136.682 27.2269 136.388 27.1935 136.097 27.2257C129.428 27.5551 122.973 28.29 116.241 28.4509C119.534 28.0022 122.903 27.6915 126.446 27.3517C130.723 26.9466 134.657 26.3665 138.969 26.1346C139.193 26.1337 139.343 26.0638 139.319 25.9949C139.29 25.9264 139.106 25.8662 138.885 25.884C130.052 26.2332 122.31 27.9258 113.187 27.9267C112.828 27.9259 112.469 27.9188 112.115 27.9087C114.929 27.3183 117.692 26.7149 120.447 26.1203C128.839 25.8706 137.196 25.4943 145.45 24.9417C145.853 24.9386 146.179 24.8209 146.169 24.6843C146.162 24.5461 145.819 24.4345 145.417 24.438ZM4.97356 18.2094C5.08244 18.2413 5.16657 18.2897 5.30514 18.3687C5.30514 18.3687 5.30368 18.3687 4.97356 18.2094ZM25.2965 17.9061C23.625 17.8016 21.9272 17.7272 20.1849 17.6865C19.5364 17.6705 18.8962 17.6958 18.2832 17.7624C17.5977 17.391 16.8717 17.0308 15.9394 16.7385C17.5002 16.9606 19.2831 17.0475 20.9233 17.1969C22.7423 17.3648 24.5309 17.5199 26.3136 17.6606C26.105 17.6779 25.8963 17.691 25.6849 17.7083C25.4802 17.7319 25.0793 17.7083 25.2965 17.9061ZM29.0237 14.1124C29.3439 14.2486 29.6656 14.3864 29.9882 14.5233C29.9429 14.5217 29.8965 14.5189 29.8505 14.5151C29.4264 14.4568 29.0015 14.4014 28.5759 14.3419C28.6534 14.3811 28.7319 14.4181 28.8109 14.4557C27.1685 14.3598 25.5308 14.259 23.9024 14.1408C21.5516 13.7744 19.0261 13.5253 16.4682 13.4212C17.2089 13.2696 17.9113 13.0987 18.5655 12.914C21.821 13.3147 24.9466 13.8404 28.3546 13.9929C28.5797 14.0301 28.8019 14.0704 29.0237 14.1124ZM12.5496 20.9213C12.5455 20.9213 12.5455 20.9213 12.5439 20.9213C12.4185 20.8373 12.2684 20.735 12.0763 20.6064C12.0763 20.6064 12.2748 20.7385 12.5496 20.9213ZM6.96856 27.0617L6.88607 27.003L7.88174 25.584L6.96856 27.0617Z" fill="#C1D2DB"/>
<path d="M25.8494 35.6616C25.8175 35.519 25.599 35.3245 25.5198 35.1819C25.6368 34.9923 25.7915 34.9 25.8556 34.7592C25.9517 34.3316 25.9576 33.8568 26.0534 33.4308C26.0749 33.2413 26.0908 33.0987 26.1126 32.9092C26.422 32.297 26.534 31.7284 26.4607 31.1096C26.4712 31.0141 26.6414 30.7791 26.6627 30.5896C26.7213 30.4955 26.8337 30.3548 26.7969 30.2593C26.6741 30.0681 26.7965 29.8316 27.0735 29.5028C27.2445 29.268 27.2714 29.0316 27.3939 28.7951C27.8006 27.7569 28.0618 26.7154 28.4623 25.7241C28.235 23.9145 32.8691 17.759 29.3579 18.6562C29.1495 18.7972 28.8513 18.8861 28.606 18.9314C24.9223 20.4912 25.2368 20.2581 23.9023 23.5638C23.8009 24.0367 23.657 24.4629 23.5078 24.9358C23.4372 25.1253 23.4645 25.3149 23.3412 25.5497C22.5891 27.1077 22.3156 28.6708 21.1746 30.2693C21.0731 30.3146 21.0678 30.3632 21.0089 30.4572C19.9704 31.581 20.1192 31.5357 18.9254 31.4703C18.7342 31.4687 18.5528 31.3697 18.3979 31.4619C17.8595 31.5491 17.6042 31.2606 17.5938 30.9268C17.5996 30.4523 17.6533 29.9792 17.808 29.4575C18.4864 27.2822 19.367 25.0144 20.2908 22.7956C21.4006 20.6271 19.1296 22.019 19.1901 20.2145C19.1738 19.9276 19.1158 19.5956 19.2434 19.3121C19.4522 18.7451 19.5108 18.2235 19.7143 17.7037C19.8531 17.3246 19.885 17.041 19.757 16.8951C20.1683 16.2377 20.5256 15.6254 20.9415 14.9194C21.5808 15.2128 22.3373 14.8925 23.3117 14.7651C23.9521 14.6309 24.6715 13.7872 24.8321 13.2186C25.6326 11.2361 26.3793 10.1542 27.5159 8.17519C28.2359 6.90385 29.2012 5.58723 30.0713 4.27061C30.3006 3.94196 30.5513 3.85123 30.8814 3.90329C31.2592 3.957 31.5413 4.00722 31.9196 4.06093C32.3828 4.21031 32.3984 4.49534 32.2069 4.92132C31.8337 5.6743 31.3745 6.33343 31.108 6.9944C30.7348 7.74921 30.3721 8.41 30.004 9.11605C26.7179 13.532 29.7239 13.2923 33.4699 12.0193C33.5924 11.7845 33.7475 11.6906 33.8167 11.5028C34.404 10.1324 34.8784 9.33234 35.6147 7.91858C35.7538 7.53952 36.0953 7.06992 36.1384 6.69086C36.208 6.0737 36.6982 5.55882 37.0508 4.99353C37.2851 4.61778 37.4722 4.24037 37.5738 3.76747C37.611 3.43533 37.9046 2.96408 38.0919 2.58668C38.6671 1.73966 39.2911 0.894852 39.8719 0C40.5437 0.0100813 41.2155 0.0201641 41.8385 0.0302454C42.8457 0.0452757 43.7303 0.296023 44.4496 0.73465C45.1256 1.12544 45.4451 1.70117 45.151 2.59841C44.8471 3.16369 44.7346 3.73228 44.2927 4.2488C43.1295 6.03668 42.2486 7.8766 41.4212 9.66961C40.4182 11.7443 42.9442 11.07 44.223 10.8051C44.4685 10.7599 44.7615 10.7179 44.8255 11.0029C43.898 11.1321 42.8641 11.3534 42.0275 11.5313C41.5368 11.6186 41.1854 11.7561 40.7796 11.9405C40.2202 12.2172 39.9267 12.6868 39.7187 13.2538C39.9586 13.2571 40.3368 13.3108 40.6244 13.3159C40.7686 13.3176 41.0135 13.2739 41.1678 13.1817C41.7494 13.1433 42.3406 13.0091 42.9053 13.113C43.1397 13.1632 43.6728 13.1247 44.0186 13.0342C44.4082 12.9922 44.7438 12.9974 45.1756 13.0039C45.0583 12.7658 44.9362 12.5728 44.8666 12.3347C44.8457 12.0966 45.0222 11.8147 45.1606 11.4357C45.2563 11.4373 45.4005 11.4408 45.496 11.4408C45.5501 11.3955 45.5501 11.3955 45.6034 11.3486C45.4806 11.1558 45.2621 10.9628 45.1879 10.7716C45.832 11.0181 46.3111 11.4542 46.4273 12.1201L46.4378 12.0261C46.3317 12.1201 46.2307 12.1652 46.0386 12.1619C45.6175 12.9167 46.1929 12.9251 46.8159 12.935C46.0859 13.4466 45.6921 13.1079 45.1597 13.1464C45.4735 13.341 45.6494 13.4869 45.9148 13.6798C45.5693 13.7703 45.1908 13.7168 44.9395 14.2366C45.174 14.287 45.4616 14.292 45.8397 14.344C45.4942 14.4346 45.2385 14.5739 45.0411 14.6175C44.8435 14.6628 44.5982 14.7064 44.3752 14.9881C44.5663 14.9916 44.7474 15.0888 44.9819 15.1408C43.7932 15.4544 42.6049 15.7697 41.4006 16.2259C40.6057 16.4507 39.716 16.6754 38.8689 16.9472C38.1753 17.1283 37.7439 17.5493 37.4885 18.1146C37.0085 18.9633 36.7678 19.8152 36.5271 20.6657C36.3142 21.2812 36.149 21.8951 35.8391 22.509C35.385 23.5471 35.219 24.5903 34.819 25.5815C34.5195 26.5275 34.2202 27.4733 33.8252 28.4177C33.8147 28.5132 33.6604 28.6056 33.548 28.7463C33.537 28.8404 33.4256 28.9811 33.4679 29.0299C33.6806 29.6975 33.254 30.4992 32.9815 31.2086C32.9651 31.3512 32.9014 31.4921 32.8904 31.5876C32.9597 32.2535 32.506 32.8641 32.1964 33.4779C32.1163 33.7615 31.6522 34.0381 31.3267 34.3669C31.0867 34.3635 30.842 34.4071 30.6932 34.4525C30.5489 34.4492 30.4056 34.4474 30.3035 34.4945C29.6163 35.053 28.9127 34.9003 28.2255 35.4607C27.9694 35.5981 28.1082 35.2209 27.9005 35.36C27.7412 35.501 27.6283 35.6418 27.5805 35.6401C27.3886 35.6368 27.3039 35.5411 27.1173 35.4907C27.0108 35.5848 26.7972 35.7708 26.6907 35.8648C26.0356 36.1394 25.9929 36.0908 25.8494 35.6616ZM22.7312 15.2297C22.1408 15.3639 21.9751 15.5518 21.6653 16.1656C21.9052 16.1689 22.1822 16.2681 22.4709 16.273C22.7523 16.3251 22.7841 16.4677 22.8529 16.7058C22.4009 16.8885 21.969 16.8819 21.5317 17.3516C22.1182 17.2643 22.5594 17.1771 23.0551 17.0412C23.4178 16.3821 23.7272 15.7682 24.1008 15.0134C23.5571 15.1474 23.2162 15.191 22.7312 15.2297ZM28.5402 13.9886C28.2471 14.0306 27.9967 14.1228 27.9645 14.408C28.1087 14.4096 28.1989 14.4582 28.2521 14.4113C29.0571 14.0909 29.7184 13.7688 30.4694 13.4955C30.8103 13.4519 31.0979 13.4569 31.4333 13.462C31.4388 13.4151 31.5457 13.3211 31.5512 13.2741C31.1617 13.3143 30.8103 13.4519 30.4694 13.4955C29.8249 13.675 29.1854 13.8073 28.5402 13.9886ZM29.0571 14.9462C28.764 14.9898 28.4645 15.0803 28.161 15.2178C28.4379 15.317 28.7796 15.275 29.0571 14.9462ZM32.1948 14.8037C31.7206 14.7484 31.1767 14.8842 30.5323 15.0636C30.1809 15.2011 29.8345 15.29 29.4504 15.2851C29.115 15.2799 28.8164 15.3707 28.5019 15.6036C29.7065 15.5736 30.9254 15.4024 32.4078 15.0435C32.3227 14.948 32.2794 14.9009 32.1948 14.8037ZM32.061 15.5617C31.7301 15.5098 31.4695 15.2682 30.8349 15.7814C31.3734 15.6942 31.6392 15.8872 32.061 15.5617Z" fill="#122F59"/>
<path d="M46.9145 16.7842C46.9145 16.7842 46.9145 16.7842 46.9677 16.7373C47.1334 16.5494 47.2344 16.5041 47.3887 16.4103C47.9267 16.3247 49.2228 15.4894 49.6702 15.7814C49.793 15.9726 50.2459 16.2174 50.4153 16.4103C50.5805 16.65 50.5909 16.9822 50.3939 17.4552C50.0366 18.0675 49.6358 18.6309 49.1671 19.3841C49.0384 19.6676 48.9159 19.9041 48.8468 20.0918C48.6065 20.5161 48.3499 21.083 48.0618 21.5057C47.8065 22.0726 48.8731 20.2831 48.7239 20.756C48.7075 20.897 48.5952 21.0379 48.5363 21.1334C48.0462 22.0761 48.0677 21.8866 47.9221 22.7386C47.8684 23.2133 47.4039 25.6301 47.4034 26.0579C47.4135 26.39 47.5841 26.5828 47.7062 26.774C47.8878 26.873 48.1058 27.0658 48.3829 27.1648C48.6014 27.3576 48.8516 27.2671 49.1447 27.2235C53.2857 25.8616 51.9062 25.3164 54.4812 22.9332C54.9827 22.3227 55.5747 21.7625 55.9001 21.0062C55.9056 20.9593 55.9056 20.9593 56.0757 20.7243C56.2619 21.2024 55.6594 21.8582 56.3151 22.0109C55.1037 23.7988 54.0895 26.3968 52.3518 27.321C51.8027 27.9299 48.2205 30.7257 46.2015 29.8871C45.503 30.1151 44.9549 29.441 44.2676 29.1459C43.81 28.9497 43.3733 28.5623 42.9949 28.0807C42.8256 27.4617 42.6611 26.7925 42.7308 26.177C42.6666 25.8903 42.7039 25.5582 42.7308 25.3218C42.9396 24.7548 42.9665 23.6613 43.2011 23.2855C43.2759 23.0491 43.3991 22.8126 43.4314 22.5291C43.5324 22.4821 43.4636 22.244 43.8042 22.2019C43.852 22.2019 43.9217 22.0123 43.9752 21.9671C44.252 21.6384 44.3328 21.3532 44.6101 21.0262C44.6101 21.0262 43.4906 22.0074 44.1728 21.0665C44.6633 20.1238 45.6441 19.0941 46.0072 18.4333C46.0177 18.3393 46.1297 18.1985 46.1297 18.1985C46.3058 17.9151 46.471 17.7289 46.4127 17.3951C46.3863 17.2039 46.4559 17.0144 46.6319 16.7325C46.7224 16.7809 46.7653 16.8295 46.9145 16.7842ZM51.9114 11.6805C51.7994 11.8213 51.6925 11.9153 51.6229 12.1032C51.6177 12.1517 51.6069 12.2458 51.5004 12.3396C51.3402 12.4804 51.1754 12.6683 50.9566 12.9014C50.8442 13.0422 50.4397 13.2268 50.1943 13.2704C50.1041 13.2218 49.949 13.314 49.8425 13.4079C49.5335 13.5923 49.3469 13.542 49.1658 13.4449C49.0329 13.3476 48.9365 13.3459 48.793 13.3443C48.6009 13.341 48.4566 13.3391 48.27 13.2889C48.3241 13.242 48.3824 13.1481 48.4357 13.101C48.452 12.9584 48.5637 12.8175 48.6335 12.6298C48.7559 12.3933 48.8676 12.2524 49.0386 12.0176C49.0496 11.9219 49.2043 11.8297 49.2096 11.7828C49.2418 11.4977 49.5078 11.2646 49.6843 10.981C49.7958 10.8403 49.9087 10.6993 50.0201 10.56C50.1263 10.4662 50.2335 10.3721 50.3292 10.3738C50.4311 10.3285 50.5266 10.3301 50.5691 10.3771C50.5581 10.4726 50.6547 10.4744 50.7557 10.4273C50.8569 10.382 50.9109 10.3351 50.9533 10.382C51.1336 10.481 51.3684 10.5312 51.555 10.5833C51.8745 10.7294 52.0875 10.9708 52.2419 11.3045C52.0824 11.4455 52.0175 11.5883 51.9114 11.6805Z" fill="#122F59"/>
<path d="M70.5455 22.749C70.4592 23.9348 70.8914 23.5138 72.6982 23.2573C73.2844 23.1717 74.1741 22.947 75.1334 22.1051C75.6128 21.6857 76.0811 22.2158 76.2941 22.4556C76.2726 22.6451 75.5422 23.5843 75.4353 23.6783C73.2877 24.834 72.2326 24.8172 70.7254 24.9849C69.4938 25.2516 69.3286 25.8671 68.7894 26.8079L68.5546 27.1854C68.3458 27.7523 67.9622 28.1748 67.674 28.5975C67.5675 28.6915 67.4559 28.8323 67.3542 28.8775L66.8113 29.4393C66.5814 29.768 66.2511 30.1437 65.8887 30.3752L65.51 30.751L64.9821 31.1704C64.8328 31.2157 64.6894 31.214 64.5501 31.1638C64.4176 31.0665 64.2416 30.9222 64.1027 30.872C64.0708 30.7294 64.0873 30.587 64.1031 30.4444C64.0558 30.0165 63.9546 29.6342 63.5279 29.5805C63.3477 29.4833 63.2247 29.2903 63.0977 29.1461C62.9375 28.8576 62.8042 28.7619 62.5802 28.6162C62.1814 28.3244 62.1709 27.5646 62.6248 26.954C62.8649 26.5297 63.1316 26.2966 63.4408 26.1103C63.7553 25.8772 64.112 25.6928 64.464 25.5551C65.0828 25.1845 65.6103 25.1929 66.2656 24.9178C66.6225 24.7334 66.9 24.4046 67.1507 23.8864C67.6249 22.6568 68.2127 20.8605 68.5016 19.5826L68.684 17.969C68.695 17.875 68.7054 17.7795 68.6677 17.6838C68.6468 17.4457 68.4178 17.3484 68.2525 17.5363C68.1513 17.5815 68.0985 17.6287 68.0344 17.7694C67.6403 18.286 67.2447 18.8027 66.9403 19.3694C66.0652 20.733 65.2283 22.1938 64.3587 23.5104C63.7185 24.4984 63.1369 25.3923 62.5872 26.4305C61.6753 28.1262 59.8513 29.8102 59.019 31.6501C58.8379 31.9806 58.705 32.3109 58.3956 32.4954C58.1452 32.5876 58.0059 32.9651 57.9736 33.2503C57.9359 33.5824 57.8453 33.9596 57.7176 34.2432C57.6006 34.4327 57.4828 34.6206 57.3763 34.7146C57.0513 35.0416 56.9281 35.2764 56.7578 35.5129C56.144 36.6904 55.6258 37.871 55.3855 39.1491C55.2735 39.7177 55.209 40.2879 55.0002 40.8548C54.9041 41.2808 54.6747 41.6097 54.3235 41.7471C54.0672 41.8863 53.8539 42.0725 53.6676 42.4499C53.6145 42.4968 53.4488 42.6847 53.4009 42.6829C53.2567 42.6812 53.1713 43.0117 53.0596 43.1543L53.0109 43.1527C52.2271 43.2835 51.813 42.7065 51.6264 41.8008C51.4408 40.8952 51.458 39.899 51.517 38.9497C51.678 36.6704 52.0693 34.4917 52.6142 32.219C52.8118 31.3183 53.1108 30.3723 53.3518 29.522C53.71 28.0544 54.2118 26.5885 54.7505 25.2182C55.5142 23.14 56.3208 21.1091 57.1691 19.1266C57.3671 18.6535 57.6065 18.2293 57.8153 17.6624C58.5512 16.2484 59.2023 14.7373 59.9441 13.2765C60.2643 12.5688 60.7394 11.7687 61.1555 11.0608C61.4163 10.8746 61.656 10.878 61.8742 11.0725L62.9443 11.8006L62.9879 11.8491C63.6096 12.7145 63.9238 13.7646 63.9069 15.1884C63.922 15.9029 63.7832 16.708 63.4998 17.5113C63.0834 18.6452 62.6088 19.8729 62.0428 21.0521C61.6696 21.8069 61.2746 22.751 60.89 23.6014C59.8225 26.2463 61.3945 25.9377 61.8214 25.1361C62.0076 24.7587 62.8345 23.8211 63.0324 23.348L64.9796 20.1462C65.289 19.534 65.5771 19.1113 66.0139 18.6417C66.3933 18.2676 66.7827 17.798 67.2094 17.4241C67.5294 17.144 67.9867 16.9142 68.3222 16.9193L69.1373 16.931C69.5792 16.8438 69.9207 17.228 70.2669 17.5667C70.49 17.7126 70.6392 18.095 70.6438 18.474C70.6497 18.8547 70.6971 19.2825 70.6594 19.6147L70.6958 20.9932L70.5455 22.749ZM64.5118 26.4104C64.2077 26.5497 63.9784 26.8783 63.9139 27.4486C63.9348 27.685 64.0578 27.8778 64.2011 27.8797C64.308 27.7856 64.4515 27.7891 64.5587 27.6951C64.8146 27.556 65.0762 27.3697 65.2465 27.1349C65.8544 26.4322 66.132 25.6757 65.9554 25.9576C65.4012 26.1873 64.981 26.0867 64.5118 26.4104Z" fill="#122F59"/>
<path d="M75.9299 37.1798C75.7378 37.1765 75.7378 37.1765 75.2744 37.4549C75.2744 37.4549 75.2854 37.3609 75.2907 37.3123C75.1995 37.2637 75.1995 37.2637 75.1624 37.168C75.0559 37.2619 74.9117 37.2586 74.8479 37.4012C74.5867 37.5874 74.3413 37.6309 74.0429 37.7214C73.9422 37.7667 73.9422 37.7667 73.7129 37.6693C73.7716 37.5737 73.7771 37.5267 73.8354 37.4329C73.692 37.4312 73.585 37.5234 73.4426 37.5218C73.383 37.6158 73.282 37.6626 73.1863 37.6609C72.7754 37.8924 72.5943 37.7951 72.4458 37.4127C72.3816 37.1259 72.3663 36.8409 72.1954 36.648C71.9505 36.2638 71.9564 35.7893 71.9199 35.266C71.9414 35.0764 72.0264 34.7443 72.1489 34.5095C72.3631 33.894 72.7099 33.3773 73.1574 32.8138C74.048 31.7337 74.9705 30.7978 75.9722 30.0061C77.9823 28.3726 77.7484 27.8945 77.3341 26.4623C77.1697 25.3671 76.7815 24.5536 76.3982 23.6932C76.3718 23.502 76.2435 23.3578 76.2169 23.1682C75.8551 22.5443 75.3364 19.0673 75.4332 18.2137C75.5393 18.1215 75.5025 18.0259 75.6194 17.8363C75.604 17.5511 75.7327 17.2677 75.955 16.9858C76.0199 16.8451 76.1951 16.5615 76.0787 16.3234C76.249 16.0886 76.3344 15.7565 76.5056 15.5217C76.6281 15.2869 76.7404 15.1459 76.8682 14.8625C76.9798 14.7216 77.0447 14.5792 77.204 14.4399C77.3805 14.1563 77.5563 13.8746 77.7324 13.5928C77.9676 13.2154 78.2871 12.9354 78.5162 12.6067C78.5752 12.5129 78.6231 12.5129 78.7242 12.4676C78.8793 12.3737 78.9327 12.3266 79.0496 12.1389C79.2151 11.9527 79.3218 11.8589 79.4072 11.9544C79.7267 12.1019 79.9501 12.2478 80.2057 12.5365C80.2057 12.5365 80.2535 12.5382 80.2962 12.5869C80.7062 12.783 81.2754 14.5493 81.2536 15.1664C81.2376 15.309 81.2213 15.45 81.3073 15.5471C81.275 15.8324 81.2427 16.1157 81.1139 16.3991C80.9755 16.7782 80.8261 17.2496 80.5915 17.6268C80.4736 17.8147 80.4095 17.9573 80.2124 18.0009C80.0581 18.0948 79.8924 18.281 79.7754 18.4705C79.7113 18.6115 79.5033 18.7506 79.5243 18.9889C79.5243 18.9889 79.5133 19.0844 79.4602 19.1297C79.2895 19.3661 79.1139 19.6479 78.9913 19.8845C78.7457 20.3557 78.6493 21.2095 78.7494 21.5902C78.8188 21.8285 79.0324 22.0699 79.1594 22.2142C79.7241 22.7459 80.048 24.5556 80.5167 25.0857C80.7348 25.2785 80.676 25.8002 80.8454 25.9947C81.1593 27.0429 82.8378 25.7866 84.1227 25.473C84.9013 24.9614 85.6796 24.4517 86.4628 23.8932C87.0331 23.5209 87.6095 23.1032 88.1371 22.6821C88.5051 22.4037 88.8306 22.0751 89.1554 21.7479C89.4221 21.5149 89.6943 21.233 89.9664 20.9529C90.0406 21.1441 90.0719 21.2865 90.1047 21.4291C90.168 21.716 90.1836 22.0012 89.9596 22.2829C89.8954 22.4239 89.7895 22.5177 89.7732 22.6603C89.6393 22.9908 89.4636 23.2725 89.2394 23.5544C88.9672 23.8362 88.7812 24.2136 88.509 24.4937C88.2478 24.6799 88.0344 24.8678 87.8209 25.0538C87.4532 25.3339 87.0855 25.6123 86.7172 25.8924C86.6641 25.9393 86.5574 26.0333 86.5043 26.0803C85.945 26.3554 85.4116 26.8233 84.8414 27.194C84.6808 27.3349 84.4728 27.474 84.2653 27.6133C83.2255 28.3112 81.7873 28.2894 81.6425 29.5691C81.7272 30.5217 81.7486 30.3305 81.3327 31.4661C81.3641 31.6087 81.2579 31.7025 81.2895 31.8451C81.1771 31.9859 81.2202 32.0346 81.2202 32.0346C80.9958 32.3164 81.0323 32.838 80.9049 33.1214C80.8463 33.2154 80.7392 33.3093 80.6382 33.3546C80.5851 33.4015 80.5372 33.4015 80.4832 33.4484C80.2601 33.7303 79.9879 34.0102 79.8059 34.3407C79.5069 34.8589 78.062 36.1672 77.636 36.5412C77.4703 36.729 77.3583 36.8698 77.1983 37.0091C76.9739 37.291 76.5271 37.4268 76.2226 37.5643C76.1695 37.6112 76.1216 37.6112 76.1161 37.6583C75.7911 37.9853 75.4394 38.123 75.1463 38.1666C75.0448 38.2119 75.0393 38.2607 74.9383 38.3059C75.2741 37.8825 75.5994 37.5553 75.9299 37.1798ZM74.5051 33.2149C74.2065 33.3054 73.8874 33.5855 73.706 33.916C73.5294 34.1977 73.3647 34.3856 73.1563 34.5247C72.9427 34.7109 72.7303 34.8988 72.6069 35.1336C72.5274 35.4172 72.5004 35.6553 72.378 35.8901C72.2493 36.1737 72.2766 36.3646 72.4036 36.5089C72.5688 36.7488 72.7394 36.9417 72.9039 37.1814C73.0377 37.2787 73.2243 37.329 73.4367 37.1429C73.6438 37.002 73.8046 36.8629 74.0658 36.6766C74.2784 36.4904 74.4973 36.2556 74.7106 36.0677C75.1802 35.7424 75.5584 35.3684 75.9103 34.8032C76.0168 34.7108 76.0813 34.5683 76.1401 34.4745C76.4228 34.0987 76.6625 33.6744 76.855 33.2501C77.1431 32.8274 77.149 32.351 77.3946 31.8798C77.4425 31.8814 77.4529 31.7857 77.4584 31.7388C77.63 30.2209 75.6568 32.3761 75.0169 32.9363C74.8565 33.0772 74.7022 33.1694 74.5051 33.2149Z" fill="#122F59"/>
<path d="M104.298 21.6434C104.265 21.9286 104.121 21.927 104.143 22.1651C104.169 22.3546 103.486 23.7216 103.369 23.911C102.995 24.6658 102.574 25.4188 102.2 26.1736C101.672 27.0206 101.155 27.7736 100.632 28.5737C100.403 28.9023 97.8267 31.715 97.5651 31.8996C96.8946 32.3171 95.7004 33.5349 95.0812 33.9056C94.671 34.1371 93.1733 34.6369 92.8326 34.6805C92.204 34.7174 91.5269 34.7542 90.9679 34.6034C89.9766 34.4457 88.6567 32.953 88.2843 31.9971C88.0931 31.5676 87.8482 31.1836 87.7576 30.7072C87.6361 30.0868 87.6046 29.0887 87.6368 28.3759C88.0876 24.3925 88.6314 23.8305 90.2169 20.0049C90.3507 19.6763 90.4308 19.3911 90.5637 19.0606C90.6493 18.7285 90.8312 18.3998 90.9587 18.1163C91.1613 17.5964 91.3645 17.0764 91.5616 16.6052C91.9192 15.5653 93.37 13.7807 92.2455 13.5274C91.9155 13.4737 91.6224 13.5174 91.3623 13.2758C91.096 13.0829 90.8244 12.9352 90.5586 12.7407C90.4726 12.645 90.3401 12.5479 90.3183 12.3096C90.4202 12.2643 90.5208 12.2174 90.5687 12.2191C91.2568 12.0865 91.8948 11.954 92.5831 11.8215C93.0254 11.7326 93.5106 11.6925 93.9948 11.6521C94.1924 11.6085 94.3948 11.5163 94.5172 11.2799C94.7042 10.9041 94.9819 10.5754 95.1256 10.1495C95.7072 9.25553 96.15 8.31119 96.7738 7.46601C97.3394 6.71468 97.8941 6.0572 98.5822 5.49686C98.6942 5.35774 98.8544 5.21678 98.9609 5.12294C99.1689 4.98381 99.3709 4.89143 99.6054 4.94349C99.8821 5.04247 100.186 4.90499 100.521 4.90994C100.569 4.90994 100.569 4.90995 100.622 4.86302C101.31 4.73215 101.518 5.01901 101.651 5.54397C101.837 6.022 101.879 6.49821 101.815 7.06679C101.782 7.352 101.803 7.5901 101.824 7.82839C101.851 8.01792 101.825 8.25437 101.749 8.49247C101.675 8.72727 101.6 8.96556 101.52 9.24894C101.381 9.62634 101.242 10.0052 101.104 10.3826C101.087 10.5252 101.077 10.6191 101.012 10.7617C101.146 10.859 101.29 10.8607 101.481 10.864C102.062 10.8236 102.691 10.7868 103.272 10.7481C104.087 10.7598 104.951 10.7732 105.766 10.785C106.053 10.7901 106.33 10.8889 106.661 10.9409C106.549 11.0817 106.49 11.1757 106.437 11.2227C106.33 11.3167 106.176 11.4089 106.075 11.4558C105.722 11.5916 105.318 11.776 104.965 11.9137C104.96 11.9606 104.912 11.9606 104.912 11.9606C104.379 11.9991 103.777 12.229 103.207 12.172C102.871 12.1668 102.53 12.2088 102.184 12.2994C101.981 12.3915 101.741 12.3866 101.544 12.4319C101.155 12.4738 100.813 12.5156 100.425 12.5576C100.227 12.6029 100.116 12.742 99.998 12.9315C99.9446 12.9768 99.9393 13.0256 99.8862 13.0725C99.1288 14.676 98.1905 16.1821 97.3895 17.7385C97.2725 17.9264 97.1556 18.1142 97.0911 18.2567C96.7976 18.7263 96.5577 19.1506 96.3548 19.6706C96.163 20.0949 95.8751 20.5176 95.5921 20.8932C95.3628 21.2237 95.3619 21.6513 95.0847 21.98C94.423 23.1574 93.3923 26.7534 93.2842 28.5563C93.2461 29.316 93.3575 30.0305 93.517 30.745C93.5857 30.9849 93.7619 31.129 93.8847 31.3218C93.9325 31.3218 93.9749 31.3706 94.0704 31.3722C94.5022 31.3788 95.3602 31.4377 95.824 31.1609C96.133 30.9747 97.7 29.8595 98.0143 29.6263C98.8144 28.9252 100.643 27.1944 101.23 26.2535C101.753 25.4534 102.111 24.4136 102.628 23.6606C102.874 23.1893 103.471 22.1528 103.77 21.6361C104.005 21.687 104.362 21.5027 104.298 21.6434ZM97.6589 14.5121C98.2728 13.333 98.5235 12.3871 96.8282 13.3581C96.1238 14.9163 95.8086 16.003 95.211 17.4672C93.7107 21.3885 95.5783 18.4718 96.4475 16.726C96.8858 15.8302 97.1307 15.3589 97.6589 14.5121ZM99.7617 9.07957C99.831 8.89004 99.9056 8.65358 99.9802 8.41713C100.072 8.03808 100.21 7.66067 100.301 7.28162C100.397 6.85564 100.397 6.428 100.398 6.00037C100.372 5.81084 100.233 5.76044 100.127 5.85447C99.9192 5.99359 99.7645 6.08598 99.642 6.32243C99.4072 6.69818 99.1675 7.12251 99.0227 7.5485C98.9589 7.68927 98.8474 7.83022 98.7833 7.97283C98.6654 8.1607 98.5485 8.34858 98.4251 8.58503C98.2759 9.05629 98.121 9.5763 97.9181 10.098C97.5863 11.3273 98.9244 11.3962 99.3084 10.5458C99.4578 10.0723 99.607 9.5994 99.7617 9.07957Z" fill="#122F59"/>
<path d="M108.646 21.8531C108.635 21.9471 108.529 22.0409 108.428 22.0862C108.375 22.1331 108.273 22.1801 108.257 22.321C108.188 22.5105 108.135 22.5575 107.985 22.6027C107.884 22.648 107.878 22.6968 107.799 22.9801C107.894 22.9818 107.942 22.9818 107.984 23.0304C107.984 23.0304 107.984 23.0304 107.979 23.0773C107.883 23.0756 107.788 23.0756 107.643 23.0722C107.707 22.9312 107.724 22.7886 107.734 22.6931C107.686 22.6931 107.638 22.6931 107.638 22.6931C107.553 23.0236 107.467 23.3555 107.382 23.686C107.473 23.7346 107.515 23.7832 107.563 23.7832C107.573 24.1169 107.541 24.4005 107.503 24.7324C107.466 25.0646 107.53 25.3514 107.599 25.5895C107.722 25.7824 107.987 26.8306 108.11 27.0235C108.705 27.696 109.424 28.5632 110.186 28.6218C110.42 28.6739 111.838 28.4574 112.084 28.4138C113.271 28.0985 114.444 27.498 115.59 26.708C116.476 26.1042 117.323 25.4048 118.213 24.7522C118.267 24.7053 118.32 24.6584 118.374 24.6115C118.699 24.2845 119.019 24.0042 119.344 23.6756C119.931 23.1623 120.469 22.6491 120.971 22.0387C121.141 21.8023 121.311 21.5691 121.61 21.4769C121.465 21.9029 121.326 22.282 121.091 22.6577C121.028 22.7987 120.916 22.9413 120.81 23.0335C120.484 23.3621 120.213 23.6424 119.978 24.0196C119.813 24.2058 119.599 24.3937 119.434 24.5814C119.381 24.6283 119.322 24.7224 119.21 24.8615C119.36 24.8179 119.46 24.7709 119.609 24.7257C119.53 25.0092 119.284 25.0543 119.21 25.291C119.252 25.3379 119.246 25.3865 119.338 25.4352C119.167 25.67 119.007 25.8091 118.794 25.997C118.479 26.23 118.159 26.5102 117.887 26.7903C117.402 27.2583 116.879 27.6305 116.357 28.003C116.096 28.1892 115.883 28.3753 115.627 28.5146C115.419 28.6537 115.216 28.7461 115.008 28.8852C114.704 29.0229 114.4 29.162 114.091 29.3466C113.579 29.6233 113.025 29.853 112.488 29.9403C112.338 29.9855 112.189 30.0308 112.04 30.0761C111.443 30.2572 110.857 30.3428 110.276 30.3813C109.594 30.4669 106.824 29.9016 106.226 29.6551C104.624 28.9657 104.38 28.154 103.688 27.478C103.426 27.2365 103.23 26.8541 103.129 26.4717C102.958 25.8528 102.986 25.187 103.018 24.4758C103.185 23.0049 103.729 21.5876 104.503 20.2694C104.678 19.986 104.678 19.986 104.679 19.5582C104.423 19.6975 104.268 19.7897 104.14 20.0731C103.949 20.4974 103.714 20.8748 103.426 21.2975C103.474 20.8715 103.698 20.5898 103.879 20.2593C104.36 19.4106 104.882 18.6124 105.495 17.8609C106.114 17.0624 106.77 16.3597 107.516 15.7057C108.268 15.0046 109.057 14.3991 109.878 13.9361C110.08 13.8439 110.23 13.7987 110.385 13.7065C110.635 13.6141 110.88 13.5706 110.997 13.8104C111.125 13.9546 111.322 13.911 111.407 14.0065C111.54 14.1038 111.566 14.2934 111.652 14.3905C112.105 14.6354 113.874 15.1369 114.273 15.4271C114.405 15.5242 114.479 15.7156 114.554 15.9067C114.746 16.3377 114.884 16.8159 115.187 17.1042C115.273 17.1997 115.298 17.3911 115.331 17.5335C115.363 18.1037 115.351 18.627 115.138 19.2425C114.967 19.9033 114.609 20.5155 114.21 21.0808C113.98 21.4095 113.756 21.6914 113.569 22.0686C113.437 22.3991 113.213 22.6808 112.983 23.0095C112.748 23.3869 112.386 23.6184 112.039 23.7089C111.736 23.8464 111.395 23.8884 111.112 23.8363C110.974 23.7877 110.825 23.833 110.75 23.6418C110.755 23.5949 110.707 23.5931 110.707 23.5931C110.319 23.6351 110.127 23.2039 109.856 23.058C109.813 23.0093 109.781 22.8669 109.786 22.8183C109.904 22.6304 109.818 22.5347 109.787 22.3923C109.637 22.01 109.494 21.5788 109.298 21.1965C109.265 21.0539 109.127 21.0037 108.966 21.1428C108.892 21.3801 108.678 21.568 108.646 21.8531ZM103.609 26.0529C103.641 26.1955 103.677 26.2912 103.709 26.4336C103.693 26.5762 103.827 26.6734 103.709 26.8613C103.667 26.8127 103.619 26.8127 103.624 26.7658C103.438 26.2877 103.412 25.6687 103.385 25.0516C103.343 25.003 103.396 24.9561 103.401 24.909C103.482 24.1978 103.557 23.5337 103.829 22.8242C103.893 22.6834 103.957 22.5408 103.973 22.3998C103.984 22.3041 103.989 22.2572 104.011 22.0677C103.835 22.3494 103.718 22.5373 103.648 22.7268C103.574 22.9633 103.504 23.1528 103.43 23.3893C103.098 24.6186 103.017 25.7591 103.432 26.7621C103.507 26.9533 103.634 27.0975 103.757 27.2887C103.842 27.3859 103.932 27.4346 104.071 27.4848C104.066 27.5318 104.119 27.4848 104.215 27.4865C104.098 27.2484 103.975 27.0555 103.906 26.8173C103.795 26.5306 103.827 26.2454 103.71 26.0073C103.662 26.0058 103.609 26.0529 103.609 26.0529ZM103.952 23.0172C103.627 23.772 103.594 24.4846 103.609 25.1975C103.604 25.2444 103.652 25.2444 103.695 25.293C103.802 24.7731 103.903 24.2984 104.004 23.8255C104.09 23.4934 104.176 23.1631 104.064 22.8762C104.011 22.9231 103.958 22.9701 103.952 23.0172ZM110.423 19.3139C110.311 19.4546 110.145 19.6425 110.028 19.8304C109.799 20.159 109.82 20.3973 110.044 20.5432C110.177 20.6405 110.358 20.7379 110.438 20.882C110.688 21.2174 111.077 21.1754 111.466 21.1353C111.812 21.0447 112.089 20.7175 112.319 20.3872C112.745 19.5855 112.954 19.4464 113.333 18.6446C114.303 16.8533 112.721 17.2575 111.938 17.816C111.366 18.1884 110.913 18.7988 110.423 19.3139Z" fill="#122F59"/>
<path d="M126.746 23.6475C127.019 22.9382 129.077 19.5954 129.477 19.0318C129.814 18.6091 130.15 18.1866 130.443 17.7152C130.773 17.3412 131.109 16.9185 131.345 16.5411C131.573 16.2125 131.883 16.0263 132.176 15.9843C132.512 15.9894 132.805 15.9458 133.092 15.9507C133.668 15.9592 133.956 16.3903 134.174 17.0126C134.168 17.0595 134.163 17.1064 134.152 17.2021C134.178 17.8193 134.247 18.4868 134.268 19.1527C134.294 19.7699 134.17 20.4325 134.101 21.0497C134.052 21.4757 134.053 21.9051 133.956 22.3295C134.179 22.477 134.11 22.6649 134.164 22.618C134.271 22.5258 134.59 22.6717 134.697 22.5795C134.756 22.4854 134.857 22.4385 134.915 22.3447C135.123 22.2054 135.332 22.0662 135.55 21.8314C135.721 21.5966 135.865 21.5999 136.03 21.8399C136.013 21.9825 135.949 22.1232 135.795 22.2156C135.741 22.2625 135.683 22.3564 135.624 22.4504C135.56 22.593 135.448 22.734 135.299 22.7791C135.246 22.826 135.192 22.8713 135.139 22.9182C135.086 22.9651 134.985 23.0104 134.979 23.0592C134.926 23.1061 134.877 23.1044 134.824 23.1513C134.611 23.3376 134.462 23.3829 134.27 23.3812C134.222 23.3796 134.025 23.4248 133.816 23.564C133.662 23.6562 133.518 23.6545 133.433 23.5572C133.119 23.3625 132.788 23.3106 132.469 23.1631C131.91 23.012 131.537 22.4838 131.372 21.8162C131.181 20.9575 131.288 20.0098 131.535 19.111C131.678 18.685 131.721 18.3059 131.812 17.9269C131.892 17.6435 131.973 17.3601 132.053 17.0749C132.17 16.887 132.186 16.7446 132.16 16.5532C132.112 16.5532 132.021 16.5047 132.01 16.6002C131.957 16.6454 131.85 16.7395 131.792 16.8333C131.557 17.2107 131.274 17.5863 130.986 18.009C130.815 18.2438 130.687 18.5272 130.602 18.8595C130.628 19.049 130.467 19.1898 130.404 19.3307C129.882 20.1308 129.412 20.8838 129.022 21.7812C128.708 22.442 128.308 23.0056 127.945 23.6648C127.401 24.6542 126.772 25.5483 126.318 26.5865C126.184 26.917 125.949 27.2942 125.763 27.67C125.634 27.9535 124.178 30.2127 123.864 30.4458C123.854 30.5397 123.704 30.5868 123.597 30.679C122.93 31.4774 122.264 31.4187 121.519 31.2175C121.411 31.3115 121.327 31.2142 121.242 31.1185C120.496 30.9172 120.193 30.1993 120.108 29.2483C120.056 28.44 120.153 27.5862 120.244 26.7795C120.431 25.5468 120.618 24.314 120.854 23.083C121.249 21.711 121.047 21.8032 121.574 20.5286C122.12 18.6837 121.896 18.9654 122.776 17.1255C122.862 16.7934 123.08 16.5602 123.214 16.2283C123.646 15.3812 124.019 14.6266 124.489 13.8734C124.751 13.2596 124.953 13.1674 125.422 13.2697C125.757 13.2748 126.178 13.3753 126.599 13.4777C126.882 13.5296 127.159 13.6287 127.506 13.9656C127.771 14.5879 128.203 15.0224 128.618 15.5975C128.963 16.3641 128.995 16.9343 128.605 17.8316C128.259 18.7759 128.243 18.0631 127.89 19.056C127.042 21.0385 125.713 22.5864 124.982 24.3811C124.005 26.6464 126.463 24.4493 126.746 23.6475Z" fill="#122F59"/>
<path d="M36.1015 46.9663C36.7531 46.9663 37.2885 47.1542 37.7073 47.5332C38.1267 47.9107 38.3359 48.4021 38.3359 49.0058C38.3359 49.608 38.1267 50.101 37.7073 50.4801C37.2885 50.8608 36.7531 51.0503 36.1015 51.0503H34.6641V46.9663H36.1015ZM35.659 50.2939H36.1013C36.4816 50.2939 36.78 50.1782 36.9974 49.9451C37.2146 49.7119 37.3231 49.3999 37.3231 49.0075C37.3231 48.6167 37.2146 48.3047 36.9974 48.0716C36.7802 47.8386 36.4816 47.7228 36.1013 47.7228H35.659V50.2939Z" fill="#122F59"/>
<path d="M44.1039 46.9551V47.7115H42.6258V48.5904H43.9294V49.3467H42.6258V50.2944H44.1039V51.0508H41.6309V46.9551H44.1039Z" fill="#122F59"/>
<path d="M49.0095 47.6926C48.8854 47.6926 48.7835 47.7261 48.7038 47.7916C48.6246 47.8587 48.5846 47.9525 48.5846 48.0766C48.5846 48.2007 48.6217 48.3013 48.6954 48.3768C48.7689 48.4524 48.8647 48.511 48.9835 48.5513C49.1017 48.5917 49.2333 48.6302 49.3789 48.667C49.5244 48.7038 49.669 48.7491 49.8124 48.8012C49.9557 48.8532 50.0871 48.9187 50.2052 48.9958C50.3234 49.0746 50.4194 49.1837 50.4933 49.3263C50.567 49.4671 50.604 49.6366 50.604 49.8346C50.604 50.1801 50.4631 50.4752 50.1817 50.7219C49.9009 50.9685 49.5301 51.0925 49.0706 51.0925C48.6105 51.0925 48.2404 50.9818 47.9589 50.7604C47.6775 50.539 47.5371 50.2254 47.5371 49.8177H48.5962C48.6231 50.1431 48.7899 50.3058 49.0964 50.3058C49.2398 50.3058 49.3527 50.269 49.434 50.1918C49.5154 50.1163 49.5565 50.0208 49.5565 49.905C49.5565 49.7877 49.5195 49.6936 49.4458 49.6199C49.3719 49.5461 49.2759 49.4874 49.1576 49.4455C49.0394 49.4018 48.9072 49.3633 48.7619 49.3265C48.6164 49.2897 48.4717 49.2425 48.3284 49.1888C48.1851 49.1351 48.0542 49.0697 47.9356 48.9944C47.8174 48.9188 47.7213 48.8098 47.6475 48.6672C47.5741 48.5262 47.5371 48.3585 47.5371 48.164C47.5371 47.785 47.6784 47.4796 47.9618 47.2516C48.2448 47.0217 48.6066 46.9077 49.0469 46.9077C49.4872 46.9077 49.8432 47.0067 50.115 47.208C50.3863 47.4076 50.528 47.7228 50.5397 48.1523H49.4573C49.4419 48.0047 49.3941 47.8924 49.3147 47.8117C49.2355 47.7327 49.1336 47.6926 49.0095 47.6926Z" fill="#122F59"/>
<path d="M54.0547 51.0503V46.9663H55.0496V51.0503H54.0547Z" fill="#122F59"/>
<path d="M58.9556 50.4952C58.5502 50.1011 58.3477 49.6013 58.3477 48.9958C58.3477 48.3921 58.5502 47.8922 58.9556 47.4981C59.3611 47.104 59.8567 46.9077 60.4425 46.9077C60.8966 46.9077 61.3 47.0285 61.653 47.2683C62.0061 47.5082 62.2522 47.842 62.3917 48.2696H61.2047C61.0494 47.9712 60.8013 47.8218 60.46 47.8218C60.1181 47.8218 59.8498 47.9276 59.654 48.1406C59.4579 48.3552 59.36 48.6404 59.36 48.996C59.36 49.3533 59.4577 49.6385 59.654 49.8531C59.8498 50.0661 60.1128 50.1719 60.4424 50.1719C60.6788 50.1719 60.8722 50.1132 61.0214 49.9957C61.1706 49.8766 61.2705 49.7189 61.3211 49.521H60.1689V48.7647H62.3917V49.521C62.3184 49.8932 62.1146 50.2406 61.7808 50.5625C61.6219 50.7168 61.4248 50.8444 61.1904 50.9399C60.9556 51.0372 60.7061 51.0858 60.4424 51.0858C59.8569 51.0856 59.3613 50.8893 58.9556 50.4952Z" fill="#122F59"/>
<path d="M68.3583 46.9551H69.3538V51.0508H68.3583L66.6941 48.473V51.0508H65.6992V46.9551H66.6941L68.3583 49.5329V46.9551Z" fill="#122F59"/>
<path d="M78.6873 47.6926C78.5632 47.6926 78.4613 47.7261 78.3817 47.7916C78.3025 47.8587 78.2626 47.9525 78.2626 48.0766C78.2626 48.2007 78.2996 48.3013 78.3733 48.3768C78.4466 48.4524 78.5426 48.511 78.6612 48.5513C78.7795 48.5917 78.9113 48.6302 79.0566 48.667C79.2021 48.7038 79.3468 48.7491 79.4901 48.8012C79.6334 48.8532 79.7647 48.9187 79.8829 48.9958C80.0011 49.0746 80.0972 49.1837 80.1709 49.3263C80.2447 49.4671 80.2816 49.6366 80.2816 49.8346C80.2816 50.1801 80.1406 50.4752 79.8593 50.7219C79.5783 50.9685 79.2076 51.0925 78.7481 51.0925C78.2882 51.0925 77.918 50.9818 77.6366 50.7604C77.3553 50.539 77.2148 50.2254 77.2148 49.8177H78.2739C78.3007 50.1431 78.4677 50.3058 78.7741 50.3058C78.9175 50.3058 79.0304 50.269 79.1116 50.1918C79.193 50.1163 79.234 50.0208 79.234 49.905C79.234 49.7877 79.1972 49.6936 79.1233 49.6199C79.0496 49.5461 78.9536 49.4874 78.8354 49.4455C78.7171 49.4018 78.585 49.3633 78.4395 49.3265C78.2939 49.2897 78.1493 49.2425 78.0059 49.1888C77.8626 49.1351 77.7317 49.0697 77.6132 48.9944C77.4949 48.9188 77.3989 48.8098 77.3252 48.6672C77.2517 48.5262 77.2148 48.3585 77.2148 48.164C77.2148 47.785 77.3562 47.4796 77.6395 47.2516C77.9226 47.0217 78.2844 46.9077 78.7247 46.9077C79.1649 46.9077 79.5209 47.0067 79.7925 47.208C80.0638 47.4076 80.2057 47.7228 80.2172 48.1523H79.1351C79.1195 48.0047 79.0718 47.8924 78.9924 47.8117C78.9133 47.7327 78.8114 47.6926 78.6873 47.6926Z" fill="#122F59"/>
<path d="M83.4531 47.7228V46.9663H86.6768V47.7228H85.5597V51.0503H84.5648V47.7228H83.4531Z" fill="#122F59"/>
<path d="M89.918 49.4032V46.9663H90.9129V49.4032C90.9129 49.6481 90.9732 49.836 91.0936 49.9685C91.2135 50.101 91.3906 50.1665 91.6232 50.1665C91.8558 50.1665 92.0341 50.101 92.1582 49.9685C92.2823 49.836 92.3448 49.6483 92.3448 49.4032V46.9663H93.3397V49.4032C93.3397 49.7638 93.2556 50.0758 93.0866 50.3375C92.918 50.5992 92.7046 50.7904 92.4463 50.9112C92.1884 51.032 91.9084 51.0923 91.6056 51.0923C91.1321 51.0923 90.7325 50.9448 90.4068 50.6497C90.0811 50.3542 89.918 49.9399 89.918 49.4032Z" fill="#122F59"/>
<path d="M98.2909 46.9663C98.9425 46.9663 99.478 47.1542 99.8968 47.5332C100.316 47.9107 100.525 48.4021 100.525 49.0058C100.525 49.608 100.316 50.101 99.8968 50.4801C99.478 50.8608 98.9425 51.0503 98.2909 51.0503H96.8535V46.9663H98.2909ZM97.8486 50.2939H98.2909C98.6713 50.2939 98.9697 50.1782 99.1871 49.9451C99.4043 49.7119 99.5128 49.3999 99.5128 49.0075C99.5128 48.6167 99.4043 48.3047 99.1871 48.0716C98.9699 47.8386 98.6713 47.7228 98.2909 47.7228H97.8486V50.2939Z" fill="#122F59"/>
<path d="M103.82 51.0503V46.9663H104.815V51.0503H103.82Z" fill="#122F59"/>
<path d="M108.721 50.4987C108.316 50.1029 108.113 49.6014 108.113 48.9958C108.113 48.3921 108.316 47.8922 108.721 47.4981C109.127 47.104 109.623 46.9077 110.211 46.9077C110.799 46.9077 111.293 47.104 111.695 47.4981C112.096 47.8922 112.297 48.3921 112.297 48.9958C112.297 49.6013 112.095 50.1028 111.692 50.4987C111.289 50.8944 110.794 51.0924 110.208 51.0924C109.622 51.0924 109.127 50.8946 108.721 50.4987ZM110.991 49.8531C111.187 49.6385 111.285 49.3533 111.285 48.996C111.285 48.6404 111.187 48.3554 110.991 48.1406C110.795 47.9276 110.533 47.8218 110.205 47.8218C109.877 47.8218 109.616 47.9276 109.42 48.1406C109.224 48.3552 109.126 48.6404 109.126 48.996C109.126 49.3533 109.224 49.6385 109.42 49.8531C109.616 50.0661 109.877 50.1719 110.205 50.1719C110.533 50.1719 110.795 50.0659 110.991 49.8531Z" fill="#122F59"/>
</svg>
