<svg width="234" height="46" viewBox="0 0 234 46" fill="none" xmlns="http://www.w3.org/2000/svg">
<path d="M0.47168 35V2.87598H9.15088V27.9907H21.5215V35H0.47168ZM49.9321 22.4976C49.9321 24.5776 49.6465 26.4233 49.0752 28.0347C48.5039 29.646 47.6763 31.001 46.5923 32.0996C45.5083 33.1982 44.1973 34.0332 42.6592 34.6045C41.1211 35.1611 39.3853 35.4395 37.4517 35.4395C35.6499 35.4395 33.9946 35.1611 32.4858 34.6045C30.9917 34.0332 29.688 33.1982 28.5747 32.0996C27.4614 31.001 26.5972 29.646 25.9819 28.0347C25.3813 26.4233 25.0811 24.5776 25.0811 22.4976C25.0811 19.7437 25.5791 17.4146 26.5752 15.5103C27.5859 13.606 29.0215 12.1558 30.8818 11.1597C32.7568 10.1636 34.9907 9.66553 37.5835 9.66553C39.9712 9.66553 42.0952 10.1636 43.9556 11.1597C45.8159 12.1558 47.2734 13.606 48.3281 15.5103C49.3975 17.4146 49.9321 19.7437 49.9321 22.4976ZM33.8042 22.4976C33.8042 23.9185 33.9287 25.1196 34.1777 26.1011C34.4268 27.0679 34.8223 27.8076 35.3643 28.3203C35.9209 28.8184 36.646 29.0674 37.5396 29.0674C38.4331 29.0674 39.1436 28.8184 39.6709 28.3203C40.1982 27.8076 40.5791 27.0679 40.8135 26.1011C41.0625 25.1196 41.187 23.9185 41.187 22.4976C41.187 21.0767 41.0625 19.8901 40.8135 18.938C40.5791 17.9858 40.1909 17.2681 39.6489 16.7847C39.1216 16.3013 38.4038 16.0596 37.4956 16.0596C36.1919 16.0596 35.2471 16.6016 34.6611 17.6855C34.0898 18.7695 33.8042 20.3735 33.8042 22.4976ZM63.3574 45.8105C59.8271 45.8105 57.1025 45.2173 55.1836 44.0308C53.2793 42.8589 52.3271 41.167 52.3271 38.9551C52.3271 37.4756 52.7886 36.2524 53.7114 35.2856C54.6343 34.3188 56.0186 33.623 57.8643 33.1982C57.1025 32.876 56.436 32.356 55.8647 31.6382C55.3081 30.9204 55.0298 30.21 55.0298 29.5068C55.0298 28.7305 55.2422 28.0493 55.667 27.4634C56.0918 26.8628 56.978 26.1523 58.3257 25.332C57.0366 24.7607 56.0186 23.8672 55.2715 22.6514C54.5391 21.4355 54.1729 19.9561 54.1729 18.2129C54.1729 16.4111 54.583 14.873 55.4033 13.5986C56.2383 12.3242 57.4468 11.3501 59.0288 10.6763C60.6255 10.0024 62.5664 9.66553 64.8516 9.66553C65.1592 9.66553 65.6279 9.69482 66.2578 9.75342C66.8877 9.79736 67.5249 9.85596 68.1694 9.9292C68.814 9.98779 69.312 10.0464 69.6636 10.105H78.3428V14.2578L74.937 15.5103C75.1714 15.9351 75.3472 16.3965 75.4644 16.8945C75.5815 17.3926 75.6401 17.9199 75.6401 18.4766C75.6401 21.1572 74.6953 23.2373 72.8057 24.7168C70.9307 26.1963 68.1255 26.936 64.3901 26.936C63.4673 26.936 62.7349 26.8774 62.1929 26.7603C62.0903 26.9507 62.0098 27.1411 61.9512 27.3315C61.9072 27.5073 61.8853 27.6758 61.8853 27.8369C61.8853 28.1738 62.083 28.4448 62.4785 28.6499C62.8887 28.8403 63.3794 28.9722 63.9507 29.0454C64.5366 29.1187 65.0933 29.1553 65.6206 29.1553H69.7515C72.5493 29.1553 74.644 29.7412 76.0356 30.9131C77.4272 32.085 78.123 33.8501 78.123 36.2085C78.123 39.2407 76.8267 41.5991 74.2339 43.2837C71.6558 44.9683 68.0303 45.8105 63.3574 45.8105ZM63.7749 40.4492C64.8149 40.4492 65.8623 40.354 66.917 40.1636C67.9717 39.9878 68.8579 39.6948 69.5757 39.2847C70.2935 38.8745 70.6523 38.3325 70.6523 37.6587C70.6523 37.146 70.4399 36.7578 70.0151 36.4941C69.5903 36.2451 69.041 36.0767 68.3672 35.9888C67.6934 35.9009 66.9829 35.8569 66.2358 35.8569H62.896C62.2808 35.8569 61.7168 35.9521 61.2041 36.1426C60.7061 36.3477 60.3105 36.6187 60.0176 36.9556C59.7246 37.2925 59.5781 37.6733 59.5781 38.0981C59.5781 38.8013 59.959 39.3652 60.7207 39.79C61.4824 40.2295 62.5005 40.4492 63.7749 40.4492ZM64.9395 22.0801C65.7598 22.0801 66.3896 21.7651 66.8291 21.1353C67.2832 20.5054 67.5103 19.5605 67.5103 18.3008C67.5103 17.0117 67.2979 16.0449 66.873 15.4004C66.4482 14.7559 65.8037 14.4336 64.9395 14.4336C64.0459 14.4336 63.3794 14.7559 62.9399 15.4004C62.5005 16.0303 62.2808 16.9824 62.2808 18.2568C62.2808 19.5312 62.5005 20.4907 62.9399 21.1353C63.3794 21.7651 64.0459 22.0801 64.9395 22.0801ZM90.7793 10.105V35H82.188V10.105H90.7793ZM86.5166 0.0854492C87.7471 0.0854492 88.8164 0.341797 89.7246 0.854492C90.6475 1.36719 91.1089 2.38525 91.1089 3.90869C91.1089 5.38818 90.6475 6.3916 89.7246 6.91895C88.8164 7.43164 87.7471 7.68799 86.5166 7.68799C85.2568 7.68799 84.1802 7.43164 83.2866 6.91895C82.4077 6.3916 81.9683 5.38818 81.9683 3.90869C81.9683 2.38525 82.4077 1.36719 83.2866 0.854492C84.1802 0.341797 85.2568 0.0854492 86.5166 0.0854492ZM112.356 9.66553C114.92 9.66553 117.015 10.3906 118.641 11.8408C120.267 13.291 121.08 15.6128 121.08 18.8062V35H112.488V21.4209C112.488 19.7656 112.247 18.5205 111.763 17.6855C111.294 16.8359 110.533 16.4111 109.478 16.4111C107.852 16.4111 106.761 17.0776 106.204 18.4106C105.647 19.729 105.369 21.626 105.369 24.1016V35H96.7778V10.105H103.26L104.424 13.4009H104.754C105.281 12.6099 105.911 11.936 106.644 11.3794C107.376 10.8228 108.218 10.3979 109.17 10.105C110.123 9.81201 111.185 9.66553 112.356 9.66553Z" fill="#122F59"/>
<path d="M138.548 2.87598C142.62 2.87598 145.667 3.76221 147.688 5.53467C149.725 7.30713 150.743 9.82666 150.743 13.0933C150.743 14.5581 150.53 15.9644 150.105 17.312C149.695 18.6597 149.014 19.8608 148.062 20.9155C147.125 21.9702 145.872 22.8052 144.305 23.4204C142.752 24.0356 140.833 24.3433 138.548 24.3433H136.109V35H127.43V2.87598H138.548ZM138.35 9.88525H136.109V17.2681H137.823C138.57 17.2681 139.266 17.1436 139.91 16.8945C140.555 16.6309 141.067 16.2134 141.448 15.6421C141.844 15.0562 142.042 14.2798 142.042 13.313C142.042 12.3022 141.741 11.4819 141.141 10.8521C140.54 10.2075 139.61 9.88525 138.35 9.88525ZM167.508 9.66553C170.657 9.66553 173.118 10.4492 174.891 12.0166C176.663 13.5693 177.549 15.7886 177.549 18.6743V35H171.595L169.947 31.7041H169.771C169.068 32.583 168.343 33.3008 167.596 33.8574C166.863 34.3994 166.021 34.7949 165.069 35.0439C164.117 35.3076 162.952 35.4395 161.575 35.4395C160.14 35.4395 158.851 35.1465 157.708 34.5605C156.565 33.9746 155.665 33.0884 155.005 31.9019C154.346 30.7153 154.017 29.2139 154.017 27.3975C154.017 24.7314 154.939 22.7539 156.785 21.4648C158.631 20.1758 161.304 19.4507 164.805 19.2896L168.958 19.1577V18.8062C168.958 17.6929 168.68 16.9019 168.123 16.4331C167.581 15.9644 166.849 15.73 165.926 15.73C164.944 15.73 163.846 15.9058 162.63 16.2573C161.429 16.5942 160.22 17.0337 159.004 17.5757L156.521 11.9067C157.957 11.1743 159.583 10.6177 161.399 10.2368C163.216 9.85596 165.252 9.66553 167.508 9.66553ZM169.002 23.8818L167.024 23.9697C165.442 24.0283 164.329 24.3066 163.685 24.8047C163.055 25.2881 162.74 25.9839 162.74 26.8921C162.74 27.7417 162.967 28.3716 163.421 28.7817C163.875 29.1772 164.476 29.375 165.223 29.375C166.263 29.375 167.149 29.0454 167.881 28.3862C168.628 27.7271 169.002 26.8701 169.002 25.8154V23.8818ZM191.897 45.8105C188.367 45.8105 185.643 45.2173 183.724 44.0308C181.819 42.8589 180.867 41.167 180.867 38.9551C180.867 37.4756 181.329 36.2524 182.251 35.2856C183.174 34.3188 184.559 33.623 186.404 33.1982C185.643 32.876 184.976 32.356 184.405 31.6382C183.848 30.9204 183.57 30.21 183.57 29.5068C183.57 28.7305 183.782 28.0493 184.207 27.4634C184.632 26.8628 185.518 26.1523 186.866 25.332C185.577 24.7607 184.559 23.8672 183.812 22.6514C183.079 21.4355 182.713 19.9561 182.713 18.2129C182.713 16.4111 183.123 14.873 183.943 13.5986C184.778 12.3242 185.987 11.3501 187.569 10.6763C189.166 10.0024 191.106 9.66553 193.392 9.66553C193.699 9.66553 194.168 9.69482 194.798 9.75342C195.428 9.79736 196.065 9.85596 196.709 9.9292C197.354 9.98779 197.852 10.0464 198.204 10.105H206.883V14.2578L203.477 15.5103C203.711 15.9351 203.887 16.3965 204.004 16.8945C204.122 17.3926 204.18 17.9199 204.18 18.4766C204.18 21.1572 203.235 23.2373 201.346 24.7168C199.471 26.1963 196.666 26.936 192.93 26.936C192.007 26.936 191.275 26.8774 190.733 26.7603C190.63 26.9507 190.55 27.1411 190.491 27.3315C190.447 27.5073 190.425 27.6758 190.425 27.8369C190.425 28.1738 190.623 28.4448 191.019 28.6499C191.429 28.8403 191.919 28.9722 192.491 29.0454C193.077 29.1187 193.633 29.1553 194.161 29.1553H198.292C201.089 29.1553 203.184 29.7412 204.576 30.9131C205.967 32.085 206.663 33.8501 206.663 36.2085C206.663 39.2407 205.367 41.5991 202.774 43.2837C200.196 44.9683 196.57 45.8105 191.897 45.8105ZM192.315 40.4492C193.355 40.4492 194.402 40.354 195.457 40.1636C196.512 39.9878 197.398 39.6948 198.116 39.2847C198.833 38.8745 199.192 38.3325 199.192 37.6587C199.192 37.146 198.98 36.7578 198.555 36.4941C198.13 36.2451 197.581 36.0767 196.907 35.9888C196.233 35.9009 195.523 35.8569 194.776 35.8569H191.436C190.821 35.8569 190.257 35.9521 189.744 36.1426C189.246 36.3477 188.851 36.6187 188.558 36.9556C188.265 37.2925 188.118 37.6733 188.118 38.0981C188.118 38.8013 188.499 39.3652 189.261 39.79C190.022 40.2295 191.041 40.4492 192.315 40.4492ZM193.479 22.0801C194.3 22.0801 194.93 21.7651 195.369 21.1353C195.823 20.5054 196.05 19.5605 196.05 18.3008C196.05 17.0117 195.838 16.0449 195.413 15.4004C194.988 14.7559 194.344 14.4336 193.479 14.4336C192.586 14.4336 191.919 14.7559 191.48 15.4004C191.041 16.0303 190.821 16.9824 190.821 18.2568C190.821 19.5312 191.041 20.4907 191.48 21.1353C191.919 21.7651 192.586 22.0801 193.479 22.0801ZM221.89 9.66553C224.307 9.66553 226.395 10.0903 228.152 10.9399C229.91 11.7749 231.265 13.0347 232.217 14.7192C233.169 16.4038 233.646 18.5132 233.646 21.0474V24.8706H218.287C218.36 26.1743 218.843 27.2437 219.737 28.0786C220.645 28.9136 221.978 29.3311 223.736 29.3311C225.289 29.3311 226.709 29.1772 227.999 28.8696C229.302 28.562 230.643 28.0859 232.02 27.4414V33.6157C230.818 34.2456 229.507 34.707 228.086 35C226.666 35.293 224.871 35.4395 222.703 35.4395C220.198 35.4395 217.957 34.9927 215.979 34.0991C214.002 33.2056 212.442 31.8213 211.299 29.9463C210.171 28.0713 209.607 25.6616 209.607 22.7173C209.607 19.729 210.12 17.2754 211.146 15.3564C212.171 13.4229 213.606 11.9946 215.452 11.0718C217.298 10.1343 219.444 9.66553 221.89 9.66553ZM222.198 15.5103C221.187 15.5103 220.337 15.8325 219.649 16.4771C218.975 17.1069 218.58 18.103 218.462 19.4653H225.845C225.831 18.7329 225.684 18.0664 225.406 17.4658C225.127 16.8652 224.717 16.3892 224.175 16.0376C223.648 15.686 222.989 15.5103 222.198 15.5103Z" fill="#C1D2DB"/>
</svg>
